<svg aria-hidden="true" style="position:absolute;width:0;height:0;overflow:hidden" xmlns="http://www.w3.org/2000/svg"><defs><symbol id="icon-book" viewBox="0 0 32 32"><path d="M22.336 22.312V9.2a3.2 3.2 0 0 0-3.2-3.2h-8A3.197 3.197 0 0 0 8.16 8.048H3.2a1.6 1.6 0 0 0-1.6 1.6v4.72a1.6 1.6 0 0 0 1.6 1.6h4.736v6.928a3.2 3.2 0 0 0 3.2 3.2h8a3.2 3.2 0 0 0 3.2-3.2v-.584zM11.136 7.6h8a1.6 1.6 0 0 1 1.6 1.6v12.312h-11.2V17l.928 1.152a.8.8 0 0 0 .672.296.836.836 0 0 0 .2 0 .8.8 0 0 0 .584-.648l.296-1.808h1.472a1.6 1.6 0 0 0 1.6-1.6V9.648a1.6 1.6 0 0 0-1.6-1.6h-3.68a1.598 1.598 0 0 1 1.128-.448zM3.2 9.648h10.44v4.72h-2.144a.799.799 0 0 0-.8.672l-.104.656-.84-1.032a.596.596 0 0 0-.128-.112c-.04 0-.072-.056-.12-.08l-.16-.024a.612.612 0 0 0-.16 0H3.2v-4.8zm15.936 14.848h-8a1.605 1.605 0 0 1-1.6-1.384h11.2a1.603 1.603 0 0 1-1.6 1.384z"/><path d="M9.248 12.048a.8.8 0 1 1-1.6 0 .8.8 0 0 1 1.6 0zM11.648 12.048a.8.8 0 1 1-1.6 0 .8.8 0 0 1 1.6 0zM6.848 12.048a.8.8 0 1 1-1.6 0 .8.8 0 0 1 1.6 0z"/></symbol><symbol id="icon-target" viewBox="0 0 32 32"><path d="m26.243 17.419-2.36-.728A9.602 9.602 0 0 0 7.149 8.907a9.601 9.601 0 0 0 10.062 15.471l.496 1.6a.805.805 0 0 0 .688.56h.072a.807.807 0 0 0 .712-.432l1.224-2.36 1.784 1.8a.798.798 0 0 0 1.136 0l2.48-2.488a.8.8 0 0 0 0-1.128l-1.792-1.808 2.4-1.224a.803.803 0 0 0 .343-1.088.8.8 0 0 0-.479-.391h-.032zm-11.856 5.824a8 8 0 1 1 8-8c-.004.345-.028.69-.072 1.032l-2.296-.712v-.32a5.674 5.674 0 0 0-5.637-5.744 5.673 5.673 0 0 0-4.031 9.697 5.67 5.67 0 0 0 4.035 1.646 5.41 5.41 0 0 0 1.656-.248l.696 2.248a8.076 8.076 0 0 1-2.352.4zm.936-9.2a.808.808 0 0 0-.8.2.797.797 0 0 0-.2.8l1.248 4a3.933 3.933 0 0 1-1.184.192 4.069 4.069 0 0 1-4.083-4.005 4.073 4.073 0 0 1 8.14-.243l-3.12-.944zm3.337 9.6-2.36-7.6 7.608 2.352-3.2 1.68a.794.794 0 0 0-.344.344l-1.704 3.224zm5.463-1.136-1.352 1.352-1.6-1.6.464-.896.888-.464 1.6 1.608z"/></symbol><symbol id="icon-bullhorn" viewBox="0 0 32 32"><path d="M26.08 13.763a2.447 2.447 0 0 0-2.44-2.44h-3.72a5.517 5.517 0 0 0-5.04-3.296H12.4a.8.8 0 0 0-.8.8v9.456a.8.8 0 0 0 .8.8h2.48a5.532 5.532 0 0 0 4.856-2.888h.664v5.856a1.999 1.999 0 0 0 3 1.732 2 2 0 0 0 1-1.732v-5.984a2.51 2.51 0 0 0 .96-.576 2.4 2.4 0 0 0 .72-1.728zm-11.2 3.72H13.2V9.627h1.68a3.917 3.917 0 0 1 4.097 3.916c0 1.07-.438 2.094-1.211 2.834s-1.816 1.131-2.886 1.082v.024zm7.56 4.944a.4.4 0 0 1-.4-.4v-5.832h.8v5.856a.4.4 0 0 1-.4.376zm1.792-8.08a.857.857 0 0 1-.632.248h-3.296c.061-.338.093-.681.096-1.024a5.622 5.622 0 0 0-.04-.648h3.28a.8.8 0 0 1 .84.84.799.799 0 0 1-.248.584zM8.28 16.235l-1.696 1.696a.802.802 0 1 0 1.136 1.136l1.696-1.696a.804.804 0 0 0-1.136-1.136zM8.28 11.067a.802.802 0 1 0 1.136-1.136L7.72 8.235a.804.804 0 0 0-1.136 1.136l1.696 1.696zM9.2 12.827H6.8a.8.8 0 1 0 0 1.6h2.4a.801.801 0 0 0 .693-1.2.8.8 0 0 0-.693-.4z"/></symbol><symbol id="icon-business" viewBox="0 0 32 32"><path d="M12.456 21.568H7.448A2.655 2.655 0 0 0 4.8 24.216v.608a.8.8 0 1 0 1.6 0V24.2a1.045 1.045 0 0 1 1.048-1.048h5.008a1.048 1.048 0 0 1 1.048 1.063v.608a.801.801 0 0 0 1.2.693.8.8 0 0 0 .4-.693v-.624a2.655 2.655 0 0 0-2.648-2.632zM9.952 21.208a2.287 2.287 0 1 0 .005-4.576 2.288 2.288 0 0 0-.005 4.576zm0-2.968a.688.688 0 1 1 .149 1.37.688.688 0 0 1-.149-1.371zM24.36 21.568h-5.008a2.655 2.655 0 0 0-2.648 2.648v.608a.8.8 0 1 0 1.6 0V24.2a1.045 1.045 0 0 1 1.048-1.048h5.008a1.047 1.047 0 0 1 1.048 1.048v.624a.801.801 0 0 0 1.2.693.8.8 0 0 0 .4-.693V24.2a2.658 2.658 0 0 0-2.647-2.632zM19.568 18.928a2.288 2.288 0 1 0 4.576 0 2.288 2.288 0 0 0-4.576 0zm2.288-.688a.688.688 0 1 1-.688.687.678.678 0 0 1 .688-.688zM11.552 15.408a.8.8 0 0 0 .8-.8v-.616a1.047 1.047 0 0 1 1.048-1.048h5.008a1.045 1.045 0 0 1 1.048 1.048v.616a.801.801 0 0 0 1.2.693.8.8 0 0 0 .4-.693v-.616a2.65 2.65 0 0 0-2.649-2.649h-5.008a2.65 2.65 0 0 0-2.649 2.649v.616a.8.8 0 0 0 .8.8zM15.904 10.976A2.291 2.291 0 0 0 18.2 8.691 2.29 2.29 0 0 0 15.909 6.4a2.288 2.288 0 0 0-.005 4.576zm0-2.952a.69.69 0 0 1 .68.688.682.682 0 0 1-1.02.589.682.682 0 0 1-.141-1.073.687.687 0 0 1 .481-.204z"/></symbol><symbol id="icon-shopping-basket" viewBox="0 0 32 32"><path d="M21.033 20.405h-7.64l-1.224-.176a4.005 4.005 0 0 1-3.352-3.312l-1.44-8.8a1.597 1.597 0 0 0-1.832-1.296c-1.03.095-2.049.277-3.048.544a.799.799 0 0 0 .568 1.496c.16-.048.96-.2 2.728-.448l1.448 8.8a5.598 5.598 0 0 0 4.696 4.624l1.28.192h7.816a.8.8 0 1 0 0-1.6v-.024zM13.337 22.421a1.363 1.363 0 0 0-1.368 1.357 1.359 1.359 0 0 0 2.325.96 1.36 1.36 0 0 0-.957-2.318zM19.049 22.421a1.357 1.357 0 0 0-.959 2.324 1.36 1.36 0 1 0 .959-2.324z"/><path d="M21.793 10.037h-11.2a.8.8 0 0 0-.8.8v4.8a4.003 4.003 0 0 0 4 4h4.8a4 4 0 0 0 4-4v-4.8a.8.8 0 0 0-.8-.8zm-.8 5.6a2.4 2.4 0 0 1-2.4 2.4h-4.8a2.401 2.401 0 0 1-2.4-2.4v-4h9.6v4z"/><path d="M16.329 17.165a.8.8 0 0 0 .8-.8l-.04-3.2a.8.8 0 1 0-1.6 0l.04 3.2a.8.8 0 0 0 .8.8zM13.929 17.165a.8.8 0 0 0 .8-.8l-.04-3.2a.8.8 0 1 0-1.6 0l.04 3.2a.8.8 0 0 0 .8.8zM18.729 17.165a.8.8 0 0 0 .8-.8l-.04-3.2a.8.8 0 1 0-1.6 0l.04 3.2a.8.8 0 0 0 .8.8z"/></symbol><symbol id="icon-portfolio" viewBox="0 0 32 32"><path d="M25.792 16.16H23.96v-5.6a1.298 1.298 0 0 0 0-.216.217.217 0 0 0 0-.072 2.4 2.4 0 0 0-2.4-2.088h-3.424a3.37 3.37 0 0 0-5.048-2.938 3.37 3.37 0 0 0-1.696 2.914H8a2.404 2.404 0 0 0-2.4 2.192v9.808a2.4 2.4 0 0 0 2.4 2.4h9.792v4a.8.8 0 0 0 .8.8h7.2a.8.8 0 0 0 .8-.8v-9.6a.8.8 0 0 0-.8-.8zM14.784 6.64a1.793 1.793 0 0 1 1.76 1.52h-3.552a1.795 1.795 0 0 1 1.792-1.52zM8 9.76h13.552a.8.8 0 0 1 .8.72v.08a2.879 2.879 0 0 1-1.056 2.136c-.759.63-1.717.97-2.704.96h-3.008v-.696a.801.801 0 0 0-1.2-.693.8.8 0 0 0-.4.693v.696h-3.016c-2.064 0-3.744-1.392-3.76-3.064v-.128A.798.798 0 0 1 8 9.76zm0 11.2a.8.8 0 0 1-.8-.8v-6.272a5.738 5.738 0 0 0 3.768 1.368h3.016v.104a.8.8 0 1 0 1.6 0v-.104h3.008a5.727 5.727 0 0 0 3.744-1.336v2.24h-3.744a.8.8 0 0 0-.8.8v4H8zm16.992 4.8h-5.6v-8h5.6v8z"/><path d="M20.992 20.96h2.4a.8.8 0 1 0 0-1.6h-2.4a.8.8 0 1 0 0 1.6zM20.992 24.16h2.4a.8.8 0 1 0 0-1.6h-2.4a.8.8 0 1 0 0 1.6z"/></symbol><symbol id="icon-achievement-2" viewBox="0 0 32 32"><path d="M25.917 14.592c.23-.258.338-.601.296-.944a.801.801 0 0 0-.48-.696c-.232.257-.343.6-.304.944a.805.805 0 0 0 .488.696zM26.276 14.976A1.312 1.312 0 0 0 25.924 16a.908.908 0 0 0 .856-.336c.274-.264.415-.637.384-1.016a.869.869 0 0 0-.888.328zM25.781 15.92a1.04 1.04 0 0 0-.216-.936.73.73 0 0 0-.8-.2c-.079.331.007.68.232.936a.724.724 0 0 0 .784.2zM25.788 17.12c-.31.246-.5.613-.52 1.008a.934.934 0 0 0 .96-.2 1.37 1.37 0 0 0 .512-1 .903.903 0 0 0-.952.192zM25.116 18.056a1.183 1.183 0 0 0-.096-1.072.796.796 0 0 0-.84-.384c-.138.353-.102.75.096 1.072a.804.804 0 0 0 .84.385zM25.285 19.344a1.459 1.459 0 0 0-.8.96.915.915 0 0 0 1.032.073c.381-.19.659-.538.76-.952a.91.91 0 0 0-.992-.08zM24.381 20.176c.223-.362.276-.804.144-1.208a.905.905 0 0 0-.8-.68c-.227.36-.28.804-.144 1.208a.9.9 0 0 0 .8.681zM24.276 21.192c-.397.142-.71.453-.856.848a.902.902 0 0 0 1 .232c.397-.136.712-.445.856-.84a.906.906 0 0 0-1-.24zM22.621 21.08a.973.973 0 0 0 .68.8c.266-.339.371-.777.288-1.2a.973.973 0 0 0-.68-.8 1.513 1.513 0 0 0-.288 1.2zM22.821 22.896a1.266 1.266 0 0 0-1.12.528 1.01 1.01 0 0 0 .88.728c.441.03.866-.174 1.12-.536a1.018 1.018 0 0 0-.88-.72zM21.261 22.008c-.092.438.051.892.376 1.2a1.68 1.68 0 0 0 .728-1.192 1.313 1.313 0 0 0-.384-1.2 1.662 1.662 0 0 0-.72 1.192zM20.94 24.064a1.36 1.36 0 0 0-1.224.584 1.104 1.104 0 0 0 .968.8c.482.034.947-.188 1.224-.584a1.082 1.082 0 0 0-.968-.8zM20.397 23.096a1.447 1.447 0 0 0-.432-1.32 1.855 1.855 0 0 0-.752 1.312c-.094.482.062.979.416 1.32a1.84 1.84 0 0 0 .768-1.312zM6.501 13.896a1.209 1.209 0 0 0-.304-.944.796.796 0 0 0-.48.696 1.2 1.2 0 0 0 .296.944.793.793 0 0 0 .488-.696zM6.004 16a1.31 1.31 0 0 0-.352-.984.869.869 0 0 0-.848-.328c-.03.359.095.715.344.976a.907.907 0 0 0 .856.336zM6.148 15.92a.717.717 0 0 0 .8-.2c.219-.259.3-.607.216-.936-.138-.05-.288-.058-.431-.023s-.271.113-.369.223a1.04 1.04 0 0 0-.216.936zM6.661 18.128a1.375 1.375 0 0 0-.52-1.008.905.905 0 0 0-.952-.192c.02.391.206.755.512 1a.922.922 0 0 0 .96.2zM6.909 16.984c-.202.321-.238.72-.096 1.072a.795.795 0 0 0 .84-.385c.198-.323.234-.719.096-1.072a.796.796 0 0 0-.84.384zM7.413 20.304a1.459 1.459 0 0 0-.8-.96.9.9 0 0 0-1.024.08c.105.417.389.766.776.952a.908.908 0 0 0 1.048-.072zM7.404 18.968c-.132.404-.079.846.144 1.208a.9.9 0 0 0 .8-.68 1.418 1.418 0 0 0-.144-1.208.905.905 0 0 0-.8.68zM7.653 21.192a.904.904 0 0 0-1 .24c.144.395.458.704.856.84a.903.903 0 0 0 1-.232 1.425 1.425 0 0 0-.856-.848zM8.628 21.888a.973.973 0 0 0 .68-.8 1.513 1.513 0 0 0-.288-1.2.973.973 0 0 0-.68.8c-.083.423.022.861.288 1.2zM9.109 22.896a1.02 1.02 0 0 0-.88.72c.254.362.679.566 1.12.536a1.013 1.013 0 0 0 .88-.728 1.266 1.266 0 0 0-1.12-.528zM10.293 23.2c.325-.308.468-.762.376-1.2a1.663 1.663 0 0 0-.68-1.2 1.313 1.313 0 0 0-.384 1.2c.046.48.297.917.688 1.2zM10.989 24.064a1.09 1.09 0 0 0-.968.8c.277.396.742.618 1.224.584a1.11 1.11 0 0 0 .968-.8 1.36 1.36 0 0 0-1.224-.584zM11.965 21.776c-.354.341-.51.838-.416 1.32a1.84 1.84 0 0 0 .752 1.312c.354-.341.51-.838.416-1.32a1.855 1.855 0 0 0-.752-1.312zM23.164 13.6a7.2 7.2 0 1 0-14.4 0 7.2 7.2 0 0 0 14.4 0zm-7.2 5.6a5.601 5.601 0 1 1 0-11.202 5.601 5.601 0 0 1 0 11.202z"/><path d="M20.181 12.576a.803.803 0 0 0-.64-.544l-1.976-.288-.88-1.784a.801.801 0 0 0-1.44 0l-.88 1.784-1.976.256a.794.794 0 0 0-.64.544.808.808 0 0 0 .2.8l1.424 1.392-.336 1.96a.794.794 0 0 0 .32.8.8.8 0 0 0 .8.063l1.808-.888 1.768.928c.114.058.24.089.368.088a.8.8 0 0 0 .749-.505.794.794 0 0 0 .043-.447l-.336-1.96 1.408-1.376a.798.798 0 0 0 .216-.824zm-3.048 1.36a.8.8 0 0 0-.224.712l.128.8-.696-.368a.85.85 0 0 0-.752 0l-.696.368.128-.8a.8.8 0 0 0-.224-.712l-.568-.552.8-.112a.8.8 0 0 0 .6-.44l.352-.712.352.712a.8.8 0 0 0 .6.44l.8.112-.6.552z"/></symbol><symbol id="icon-achievement-1" viewBox="0 0 32 32"><path d="M3.454 12.109a1.007 1.007 0 0 0-.332 1.004c.079.417.331.782.693 1.004a1.009 1.009 0 0 0 .321-1.003 1.492 1.492 0 0 0-.683-1.004zM2.4 14.598a1.6 1.6 0 0 0 .763 1.004c.162.115.352.184.55.199s.396-.022.575-.109a1.624 1.624 0 0 0-.763-1.004 1.126 1.126 0 0 0-1.124-.091zM5.281 13.916c.21.362.233.803.06 1.185a.88.88 0 0 1-.893.522 1.253 1.253 0 0 1-.07-1.174.893.893 0 0 1 .903-.533zM3.665 17.188c.176.462.541.828 1.004 1.004a1.149 1.149 0 0 0 1.195-.11 1.689 1.689 0 0 0-1.004-1.004 1.116 1.116 0 0 0-1.195.111zM6.576 15.863c.299.372.397.867.261 1.325a1.003 1.003 0 0 1-.854.753 1.496 1.496 0 0 1-.221-1.325 1 1 0 0 1 .813-.753zM5.07 19.949c.264.454.717.767 1.235.853a1.1 1.1 0 0 0 1.185-.452 1.763 1.763 0 0 0-1.235-.853 1.109 1.109 0 0 0-1.184.452zM7.69 17.701c.39.349.607.852.592 1.375a1.101 1.101 0 0 1-.672 1.125 1.774 1.774 0 0 1-.602-1.375 1.118 1.118 0 0 1 .683-1.125zM6.997 21.947c.31.42.794.675 1.315.693a1.115 1.115 0 0 0 1.095-.632 1.706 1.706 0 0 0-1.315-.693 1.115 1.115 0 0 0-1.095.632zM9.246 19.286c.43.309.708.788.763 1.315a1.165 1.165 0 0 1-.522 1.185 1.876 1.876 0 0 1-.713-1.315c-.045-.222-.024-.452.059-.663s.227-.392.413-.522zM9.638 23.975c.428.332.998.42 1.506.231a1.248 1.248 0 0 0 .783-1.164 1.519 1.519 0 0 0-1.506-.231 1.238 1.238 0 0 0-.783 1.164zM10.712 20.039a2.007 2.007 0 0 1 1.235 1.165 1.627 1.627 0 0 1 0 1.556 2.105 2.105 0 0 1-1.235-1.165 1.65 1.65 0 0 1 0-1.556zM12.188 24.798c.47.368 1.098.463 1.656.251a1.361 1.361 0 0 0 .854-1.275 1.687 1.687 0 0 0-1.646-.261 1.375 1.375 0 0 0-.864 1.285zM13.372 20.481a2.269 2.269 0 0 1 1.355 1.275c.297.53.297 1.176 0 1.707a2.278 2.278 0 0 1-1.375-1.255 1.777 1.777 0 0 1 .02-1.727zM28.149 12.109a1.007 1.007 0 0 1 .332 1.004 1.508 1.508 0 0 1-.693 1.004 1.009 1.009 0 0 1-.321-1.003c.075-.416.323-.781.683-1.004zM29.203 14.598a1.6 1.6 0 0 1-.763 1.004c-.162.115-.352.184-.55.199s-.396-.022-.575-.109c.109-.424.384-.786.763-1.004a1.126 1.126 0 0 1 1.124-.091zM26.322 13.916c-.21.362-.233.803-.06 1.185a.88.88 0 0 0 .893.522c.217-.356.243-.795.07-1.174a.893.893 0 0 0-.903-.533zM27.938 17.188a1.735 1.735 0 0 1-1.004 1.004 1.149 1.149 0 0 1-1.195-.11 1.689 1.689 0 0 1 1.004-1.004 1.116 1.116 0 0 1 1.195.111zM25.027 15.863a1.454 1.454 0 0 0-.261 1.325 1.003 1.003 0 0 0 .854.753c.279-.382.361-.873.221-1.325a1 1 0 0 0-.813-.753zM26.533 19.949a1.763 1.763 0 0 1-1.235.853 1.1 1.1 0 0 1-1.185-.452 1.763 1.763 0 0 1 1.235-.853 1.109 1.109 0 0 1 1.184.452zM23.913 17.701c-.39.349-.607.852-.592 1.375a1.101 1.101 0 0 0 .672 1.125c.394-.347.615-.85.602-1.375a1.118 1.118 0 0 0-.683-1.125zM24.606 21.947c-.31.42-.794.675-1.315.693a1.115 1.115 0 0 1-1.095-.632c.309-.42.794-.675 1.315-.693a1.115 1.115 0 0 1 1.095.632zM22.356 19.286c-.43.309-.708.788-.763 1.315a1.165 1.165 0 0 0 .522 1.185 1.88 1.88 0 0 0 .763-1.315 1.165 1.165 0 0 0-.522-1.185zM21.965 23.975c-.428.332-.998.42-1.506.231a1.248 1.248 0 0 1-.783-1.164 1.519 1.519 0 0 1 1.506-.231 1.238 1.238 0 0 1 .783 1.164zM20.891 20.039a2.007 2.007 0 0 0-1.235 1.165 1.627 1.627 0 0 0 0 1.556 2.105 2.105 0 0 0 1.235-1.165 1.65 1.65 0 0 0 0-1.556zM19.415 24.798a1.704 1.704 0 0 1-1.656.251 1.361 1.361 0 0 1-.854-1.275 1.687 1.687 0 0 1 1.646-.261 1.375 1.375 0 0 1 .864 1.285zM18.231 20.481a2.269 2.269 0 0 0-1.355 1.275 1.747 1.747 0 0 0 0 1.707 2.278 2.278 0 0 0 1.375-1.255 1.777 1.777 0 0 0-.02-1.727zM10.622 18.192a.942.942 0 0 0 .953-.953v-.733a1.255 1.255 0 0 1 1.215-1.225h6.023a1.256 1.256 0 0 1 1.255 1.245v.733a.954.954 0 1 0 1.898 0v-.733a3.152 3.152 0 0 0-3.152-3.152h-6.023a3.153 3.153 0 0 0-3.112 3.152v.733a.944.944 0 0 0 .944.934zM15.801 12.641A2.721 2.721 0 1 0 13.08 9.92a2.731 2.731 0 0 0 2.721 2.721zm0-3.483a.813.813 0 1 1 0 1.625.813.813 0 0 1 0-1.625z"/></symbol><symbol id="icon-arrow" viewBox="0 0 75 32"><path d="M37.333 32 5.001 0h64.663L37.332 32z"/></symbol><symbol id="icon-burger" viewBox="0 0 50 32"><path d="M2 0h46a2 2 0 1 1 0 4H2a2 2 0 1 1 0-4zM2 14h46a2 2 0 1 1 0 4H2a2 2 0 1 1 0-4zM2 28h46a2 2 0 1 1 0 4H2a2 2 0 1 1 0-4z"/></symbol><symbol id="icon-check-mark-sign" viewBox="0 0 32 32"><path d="M28.642 3.132a1.968 1.968 0 0 0-2.782 0L9.862 19.13l-3.72-3.72a1.968 1.968 0 0 0-2.782 0L.578 18.192a1.968 1.968 0 0 0 0 2.782l7.893 7.893a1.968 1.968 0 0 0 2.782 0L31.425 8.695a1.968 1.968 0 0 0 0-2.782l-2.782-2.782z"/></symbol><symbol id="icon-check" viewBox="0 0 20 20"><path d="M8.294 16.998c-.435 0-.847-.203-1.111-.553L3.61 11.724a1.392 1.392 0 0 1 .27-1.951 1.392 1.392 0 0 1 1.953.27l2.351 3.104 5.911-9.492c.407-.652 1.267-.852 1.921-.445s.854 1.266.446 1.92L9.478 16.34a1.39 1.39 0 0 1-1.12.656c-.022.002-.042.002-.064.002z"/></symbol></defs></svg>